<?xml version="1.0" standalone="no"?>
<!DOCTYPE svg PUBLIC "-//W3C//DTD SVG 20010904//EN"
 "http://www.w3.org/TR/2001/REC-SVG-20010904/DTD/svg10.dtd">
<svg version="1.0" xmlns="http://www.w3.org/2000/svg"
 width="300.000000pt" height="300.000000pt" viewBox="0 0 300.000000 300.000000"
 preserveAspectRatio="xMidYMid meet">
<metadata>
Created by potrace 1.11, written by Peter Selinger 2001-2013
</metadata>
<g transform="translate(0.000000,300.000000) scale(0.100000,-0.100000)"
fill="#000000" stroke="none">
<path d="M2078 2524 c-266 -48 -500 -203 -648 -430 -42 -64 -104 -195 -116
-243 -2 -9 -8 -35 -14 -59 -22 -91 -25 -122 -24 -257 1 -116 5 -156 27 -237
91 -344 350 -602 702 -698 140 -39 369 -36 550 6 142 33 360 122 381 156 9 14
9 728 0 755 -4 12 -14 23 -24 25 -9 2 -139 4 -288 3 -212 0 -275 -3 -288 -14
-23 -20 -24 -262 0 -285 12 -13 40 -16 135 -16 l119 0 0 -119 0 -119 -63 -21
c-105 -35 -159 -44 -269 -44 -330 1 -611 298 -602 638 9 343 270 617 595 624
145 3 274 -40 392 -132 37 -29 65 -44 75 -40 32 11 211 207 212 230 1 66 -271
222 -468 269 -91 22 -287 26 -384 8z"/>
<path d="M677 2492 c-15 -16 -17 -89 -19 -717 -3 -692 -3 -701 -25 -747 -42
-92 -111 -138 -200 -134 -58 4 -105 24 -157 71 -21 19 -46 35 -56 35 -18 0
-157 -132 -187 -177 -12 -17 -12 -26 -2 -45 22 -43 114 -119 184 -153 92 -44
150 -55 265 -50 262 10 455 165 520 419 16 65 18 129 19 778 1 634 0 708 -14
722 -14 13 -42 16 -164 16 -129 0 -150 -2 -164 -18z"/>
</g>
</svg>
