<?xml version="1.0" standalone="no"?> <!DOCTYPE svg PUBLIC "-//W3C//DTD SVG 1.0//EN" "http://www.w3.org/TR/2001/REC-SVG-20010904/DTD/svg10.dtd" > <svg xmlns="http://www.w3.org/2000/svg" width="100%" height="100%">
<defs >
<font id="brandonthin" horiz-adv-x="782" ><font-face
    font-family="Brandon Grotesque Thin"
    units-per-em="2048"
    panose-1="2 11 4 3 2 2 3 6 2 2"
    ascent="2150"
    descent="-778"
    alphabetic="0" />
<missing-glyph horiz-adv-x="1226" d="M102 61V1372Q102 1434 164 1434H1063Q1095 1434 1109 1419T1124 1372V61Q1124 29 1110 15T1063 0H164Q132 0 117 14T102 61ZM537 643Q537 633 545 626T565 618H639Q670 618 670 645V698Q670 725 692 750T746 798T809 848T863
915T885 1006Q885 1105 812 1169T629 1233Q579 1233 533 1220T458 1189T405 1152T372 1121L362 1108Q346 1084 362 1071L408 1026Q425 1015 442 1026Q443 1027 457 1040T477 1059T501 1077T532 1094T569 1105T614 1110Q673 1110 706 1079T739 1004Q739 968 718
938T668 885T609 838T558 779T537 702V643ZM502 359T502 319T531 250T600 221Q641 221 670 250T700 319Q700 360 671 389T600 418Q560 418 531 389Z" />
<glyph unicode=" " glyph-name="space" horiz-adv-x="436" />
<glyph unicode="!" glyph-name="exclam" horiz-adv-x="606" d="M299 547Q285 547 285 561V1419Q285 1434 299 1434H307Q313 1434 317 1430T322 1419V561Q322 547 307 547H299ZM254 29Q254 48 268 62T303 76Q324 76 338 63T352 29Q352 8 338 -6T303 -20Q283 -20
269 -6T254 29Z" />
<glyph unicode="&quot;" glyph-name="quotedbl" horiz-adv-x="591" d="M444 1006Q430 1006 430 1020V1419Q430 1434 444 1434H451Q465 1434 465 1419V1020Q465 1006 451 1006H444ZM141 1006Q127 1006 127 1020V1419Q127 1434 141 1434H147Q162 1434 162 1419V1020Q162
1006 147 1006H141Z" />
<glyph unicode="#" glyph-name="numbersign" horiz-adv-x="1155" d="M242 16L326 444H127Q122 444 119 448T115 459V465Q115 479 127 479H330L408 877H184Q170 877 170 891V899Q170 913 184 913H416L514 1421Q518 1434 528 1434H535Q552 1434 549 1417L451 913H809L907
1421Q911 1434 922 1434H930Q945 1434 942 1417L844 913H1038Q1043 913 1047 909T1051 899V891Q1051 885 1047 881T1038 877H838L762 479H981Q995 479 995 465V459Q995 444 981 444H754L672 12Q668 0 657 0H649Q632 0 635 16L719 444H360L279 12Q273 0 264 0H256Q239
0 242 16ZM369 479H725L801 877H444L369 479Z" />
<glyph unicode="$" glyph-name="dollar" horiz-adv-x="1116" d="M131 150Q120 157 131 168L137 174Q148 184 158 174Q176 157 201 139T278 90T403 38T553 16V711Q469 734 411 754T293 806T198 876T140 970T117 1096Q117 1161 141 1221T216 1333T353 1418T553 1452V1540Q553
1554 567 1554H575Q590 1554 590 1540V1450Q674 1446 756 1421T878 1372L918 1348Q924 1342 924 1335L920 1327Q920 1318 912 1314T897 1315Q892 1319 882 1325T840 1347T773 1375T689 1399T590 1413V739Q696 709 770 676T904 596T991 485T1020 338Q1020 197 892
93T590 -20V-252Q590 -264 575 -264H567Q553 -264 553 -252V-20Q471 -18 393 4T261 59T177 112T131 150ZM553 750V1415Q449 1414 369 1385T244 1309T176 1208T154 1096Q154 1035 173 986T224 903T310 839T418 791T553 750ZM590 16Q749 23 866 117T983 338Q983 414
956 472T873 573T751 644T590 700V16Z" />
<glyph unicode="%" glyph-name="percent" horiz-adv-x="1441" d="M507 874T387 874T183 959T98 1165Q98 1285 182 1369T387 1454T591 1370T676 1165Q676 1044 592 959ZM387 911Q492 911 566 985T641 1165T567 1343T387 1417Q281 1417 208 1344T135 1165Q135 1059
208 985T387 911ZM733 268Q733 390 817 474T1022 559Q1141 559 1226 474T1311 268Q1311 149 1226 65T1022 -20Q901 -20 817 64T733 268ZM768 268Q768 164 842 90T1022 16Q1126 16 1200 90T1274 268Q1274 374 1201 448T1022 522Q916 522 842 448T768 268ZM246 25L1100
1430Q1106 1439 1116 1432L1128 1425Q1140 1420 1133 1409L279 4Q270 -6 264 -2L248 8Q240 14 246 25Z" />
<glyph unicode="&amp;" glyph-name="ampersand" horiz-adv-x="1423" d="M209 354Q209 430 233 494T302 610T402 700T528 774L467 838Q307 998 307 1151Q307 1190 319 1231T358 1312T423 1384T519 1434T645 1454Q798 1454 880 1365T963 1151Q963 1039 862 942T594
768H592L1087 279Q1165 383 1208 507T1251 750Q1251 769 1247 813Q1247 829 1262 829H1270Q1284 829 1284 817Q1288 773 1288 750Q1288 625 1243 495T1114 256L1343 29Q1354 20 1346 12L1331 0Q1325 -6 1317 2L1090 225Q996 110 868 45T590 -20Q420 -20 315 89T209
354ZM565 793Q928 959 928 1151Q928 1260 855 1338T645 1417Q568 1417 508 1392T413 1326T360 1241T342 1151Q342 1024 492 866Q500 858 514 843T541 816T565 793ZM244 354Q244 212 340 114T590 16Q732 16 852 78T1065 250L555 752Q409 679 327 585T244 354Z" />
<glyph unicode="&apos;" glyph-name="quotesingle" horiz-adv-x="290" d="M141 1006Q127 1006 127 1020V1419Q127 1434 141 1434H150Q164 1434 164 1419V1020Q164 1006 150 1006H141Z" />
<glyph unicode="(" glyph-name="parenleft" horiz-adv-x="704" d="M633 -125Q647 -125 647 -139V-147Q647 -160 633 -160Q558 -157 490 -131T357 -45T244 105T168 333T139 647T168 960T244 1188T356 1337T490 1424T633 1454Q647 1454 647 1440V1432Q647 1417 633
1417Q563 1413 501 1388T377 1306T273 1164T203 947T176 647T202 347T272 129T377 -13T500 -96T633 -125Z" />
<glyph unicode=")" glyph-name="parenright" horiz-adv-x="704" d="M72 -125Q142 -121 204 -96T327 -14T431 129T501 347T528 647T502 946T432 1164T328 1306T205 1388T72 1417Q57 1417 57 1432V1440Q57 1454 72 1454Q147 1450 214 1424T347 1338T460 1188T536
960T565 647T536 334T460 105T348 -44T215 -131T72 -160Q57 -160 57 -147V-139Q57 -125 72 -125Z" />
<glyph unicode="*" glyph-name="asterisk" horiz-adv-x="720" d="M356 831Q342 831 342 846V1100L121 973Q110 968 104 975L96 989Q93 997 102 1004L322 1133L102 1262Q92 1267 98 1276L104 1288Q109 1299 121 1292L342 1165V1419Q342 1434 356 1434H365Q379 1434
379 1419V1165L600 1292Q611 1298 616 1288L623 1276Q629 1267 618 1262L399 1133L618 1004Q628 998 625 989L616 975Q611 968 600 973L379 1100V846Q379 831 365 831H356Z" />
<glyph unicode="+" glyph-name="plus" horiz-adv-x="1050" d="M508 313V694H127Q113 694 113 709V717Q113 731 127 731H508V1110Q508 1124 522 1124H530Q545 1124 545 1110V731H924Q938 731 938 717V709Q938 694 924 694H545V313Q545 299 530 299H522Q508 299 508 313Z" />
<glyph unicode="," glyph-name="comma" horiz-adv-x="536" d="M211 27Q211 45 224 58T258 72Q297 72 331 24T365 -117Q365 -156 352 -191T321 -249T283 -288T251 -312L238 -319Q223 -327 219 -317L213 -305Q206 -292 219 -287Q223 -285 230 -281T256 -262T289
-228T314 -180T326 -117Q326 -45 299 0Q279 -20 258 -20Q238 -20 225 -6T211 27Z" />
<glyph unicode="-" glyph-name="hyphen" horiz-adv-x="1222" d="M362 498Q350 498 350 512V520Q350 535 362 535H860Q865 535 868 531T872 520V512Q872 498 860 498H362Z" />
<glyph unicode="." glyph-name="period" horiz-adv-x="491" d="M197 29Q197 48 211 62T246 76Q267 76 281 63T295 29T281 -5T246 -20Q226 -20 212 -6T197 29Z" />
<glyph unicode="/" glyph-name="slash" horiz-adv-x="684" d="M90 12L592 1423Q595 1434 606 1434H621Q633 1434 629 1421L125 8Q122 0 111 0H96Q86 0 90 12Z" />
<glyph unicode="0" glyph-name="zero" horiz-adv-x="1351" d="M916 -23T676 -23T303 168T170 698Q170 1038 302 1228T676 1419Q916 1419 1049 1228T1182 698Q1182 360 1049 169ZM451 14T676 14T1023 194T1145 698T1023 1202T676 1382T329 1202T207 698T329 194Z" />
<glyph unicode="1" glyph-name="one" horiz-adv-x="655" d="M397 14V1343L57 1092Q47 1084 41 1094L31 1108Q27 1116 35 1122L412 1399Q420 1405 427 1401T434 1386V14Q434 0 420 0H412Q397 0 397 14Z" />
<glyph unicode="2" glyph-name="two" horiz-adv-x="1075" d="M80 25L664 569Q783 681 846 786T909 1012Q909 1086 882 1152T805 1269T674 1351T494 1382Q430 1382 373 1363T280 1315T219 1259T181 1212L170 1192Q165 1182 156 1186L141 1194Q130 1201 137 1212Q141
1220 150 1234T191 1283T260 1346T361 1395T494 1417Q603 1417 690 1384T833 1295T917 1167T946 1012Q946 884 880 773T688 545L145 37H922Q936 37 936 23V14Q936 0 922 0H90Q80 0 76 9T80 25Z" />
<glyph unicode="3" glyph-name="three" horiz-adv-x="1148" d="M121 164Q113 174 121 182L131 190Q140 198 150 188Q210 125 257 95Q376 16 539 16Q736 16 852 118T969 381Q969 510 867 608T606 707H330Q315 707 315 721V729Q315 743 330 743H606Q737 743 834
834T932 1063Q932 1203 834 1292T575 1382Q506 1382 442 1365T336 1322T262 1272T216 1230L201 1212Q194 1201 184 1208L172 1217Q162 1224 168 1233Q174 1240 185 1252T234 1297T315 1353T429 1397T575 1417Q751 1417 860 1318T969 1063Q969 945 897 853T719 727Q845
695 925 596T1006 381Q1006 207 878 94T539 -20Q467 -20 402 -5T297 29T215 78T159 124T121 164Z" />
<glyph unicode="4" glyph-name="four" horiz-adv-x="1204" d="M45 326Q36 326 33 333T35 348L922 1421Q925 1426 930 1427T940 1424T944 1413V360H1090Q1104 360 1104 348V340Q1104 326 1090 326H944V14Q944 0 930 0H924Q909 0 909 14V326H45ZM92 360H909V1352L92 360Z" />
<glyph unicode="5" glyph-name="five" horiz-adv-x="1144" d="M156 156Q148 166 156 174L166 182Q174 188 184 178Q323 16 557 16Q751 16 878 143T1006 455Q1006 645 892 744T559 840H188Q174 840 174 854V1382Q174 1397 188 1397H856Q870 1397 870 1382V1376Q870
1362 856 1362H211V874H559Q794 878 918 769T1042 455Q1042 325 981 217T807 44T557 -20Q302 -20 156 156Z" />
<glyph unicode="6" glyph-name="six" horiz-adv-x="1159" d="M129 565Q129 682 158 789T233 978T343 1131T468 1254T596 1345T710 1408T797 1444Q810 1448 813 1438L817 1423Q820 1412 809 1407Q773 1394 732 1375T631 1321T516 1244T401 1141T297 1012T217 854T170
666Q200 706 236 742T329 818T461 883T623 907Q741 907 842 853T1007 694T1071 455Q1071 258 935 119T610 -20Q462 -20 351 58T185 268T129 565ZM164 565Q164 409 215 286T369 89T610 16Q785 16 910 144T1036 455Q1036 579 978 675T826 820T623 870Q542 870 467
845T345 787T255 710T196 643T167 599Q165 595 164 594V565Z" />
<glyph unicode="7" glyph-name="seven" horiz-adv-x="980" d="M315 18L905 1362H66Q51 1362 51 1376V1382Q51 1397 66 1397H938Q945 1397 949 1391T950 1378L346 2Q340 -9 330 -4L319 0Q310 5 315 18Z" />
<glyph unicode="8" glyph-name="eight" horiz-adv-x="1196" d="M141 358Q141 494 240 588T510 711Q360 741 269 830T178 1044Q178 1115 201 1178T272 1294T403 1378T594 1409Q703 1409 786 1378T919 1294T993 1178T1018 1044Q1018 918 928 830T688 711Q861 681
958 591T1055 358Q1055 262 1020 188T921 70T776 3T596 -20Q499 -20 418 2T274 69T176 188T141 358ZM598 735Q767 745 874 827T981 1044Q981 1108 958 1165T890 1271T769 1347T594 1376T421 1348T302 1271T237 1166T215 1044Q215 909 322 827T598 735ZM176 358Q176
271 208 204T297 95T430 33T596 12Q717 12 810 47T962 163T1020 358Q1020 493 905 584T598 688Q403 674 290 588T176 358Z" />
<glyph unicode="9" glyph-name="nine" horiz-adv-x="1159" d="M342 -16Q339 -5 350 0Q404 19 467 50T619 146T781 289T913 486T989 741Q959 701 923 665T831 589T699 524T537 500Q418 500 317 554T152 713T88 952Q88 1149 224 1288T549 1427Q697 1427 808 1349T974
1139T1030 842Q1030 725 1001 618T926 429T816 276T691 153T563 62T449 -1T362 -37Q349 -41 346 -31L342 -16ZM537 537Q618 537 692 562T814 620T904 697T963 764T992 808Q994 812 995 813V842Q995 998 944 1121T791 1317T549 1391Q374 1391 249 1263T123 952Q123
828 181 732T333 587T537 537Z" />
<glyph unicode=":" glyph-name="colon" horiz-adv-x="593" d="M297 743Q277 743 263 757T248 791Q248 812 262 826T297 840Q319 840 332 826T346 791Q346 772 332 758T297 743ZM248 29Q248 48 262 62T297 76Q318 76 332 63T346 29Q346 8 332 -6T297 -20Q277 -20
263 -6T248 29Z" />
<glyph unicode=";" glyph-name="semicolon" horiz-adv-x="616" d="M297 743Q278 743 264 757T250 791Q250 812 264 826T297 840Q319 840 332 826T346 791Q346 772 332 758T297 743ZM252 27Q252 45 265 58T299 72Q338 72 372 24T406 -117Q406 -156 393 -192T360
-250T322 -290T290 -314L276 -322Q275 -324 270 -323T262 -319L256 -309Q250 -303 251 -297T260 -287Q264 -285 271 -281T297 -262T330 -228T355 -180T367 -117Q367 -45 340 0Q320 -20 299 -20Q279 -20 266 -6T252 27Z" />
<glyph unicode="&lt;" glyph-name="less" horiz-adv-x="897" d="M66 463Q58 468 58 475T66 487L813 969Q826 975 831 965L838 954Q846 942 834 936L117 475L834 29Q846 23 838 10L831 0Q826 -10 813 -4L66 463Z" />
<glyph unicode="=" glyph-name="equal" horiz-adv-x="1361" d="M342 782Q328 782 328 797V805Q328 819 342 819H1020Q1034 819 1034 805V797Q1034 782 1020 782H342ZM342 360Q328 360 328 375V383Q328 397 342 397H1020Q1034 397 1034 383V375Q1034 360 1020 360H342Z" />
<glyph unicode="&gt;" glyph-name="greater" horiz-adv-x="897" d="M59 10Q50 23 63 29L780 475L63 936Q51 942 59 954L66 965Q71 975 84 969L831 487Q839 482 839 475T831 463L84 -4Q71 -10 66 0L59 10Z" />
<glyph unicode="?" glyph-name="question" horiz-adv-x="1032" d="M479 526Q465 526 465 541V664Q465 697 475 724T506 770T540 800T577 823Q582 826 584 827Q844 968 844 1153Q844 1267 752 1342T512 1417Q444 1417 383 1400T282 1358T214 1309T172 1266L160
1249Q157 1245 152 1244T143 1245L133 1253Q124 1262 129 1270Q134 1277 143 1289T188 1334T263 1390T371 1434T512 1454Q674 1454 776 1368T879 1153Q879 1099 859 1049T810 962T739 891T667 836T600 795Q579 784 567 776T537 752T511 714T502 664V541Q502 526
487 526H479ZM444 9T444 29T458 62T492 76Q513 76 527 63T541 29T527 -5T492 -20Q472 -20 458 -6Z" />
<glyph unicode="@" glyph-name="at" horiz-adv-x="2048" d="M106 461Q106 750 220 975T550 1327T1049 1454Q1250 1454 1414 1390T1686 1211T1854 939T1913 596Q1913 523 1906 456T1881 316T1833 186T1758 80T1649 7T1503 -20Q1410 -20 1353 25T1280 143Q1180 -20
969 -20Q793 -20 684 105T575 418Q575 599 689 719T975 840Q1076 840 1151 806T1274 729V805Q1274 819 1288 819H1296Q1311 819 1311 805V213Q1311 125 1361 71T1503 16Q1590 16 1657 52T1765 146T1832 282T1868 437T1878 596Q1878 774 1822 924T1662 1184T1400
1355T1049 1417Q776 1417 569 1295T252 957T141 461Q141 152 305 -78T745 -426Q757 -431 752 -440L745 -453Q739 -464 729 -459Q446 -339 276 -100T106 461ZM612 418Q612 246 710 131T969 16Q1036 16 1092 36T1180 86T1235 144T1266 194L1274 215V674Q1270 680
1258 693T1219 725T1160 762T1078 791T975 803Q817 803 715 694T612 418Z" />
<glyph unicode="A" glyph-name="A" horiz-adv-x="1308" d="M16 14L647 1468Q651 1477 657 1477H662Q668 1477 672 1468L1290 14Q1293 5 1284 2L1266 -4Q1259 -6 1255 2L1073 430H236L51 2Q47 -6 41 -4L23 2Q13 5 16 14ZM252 465H1057L659 1403L252 465Z" />
<glyph unicode="B" glyph-name="B" horiz-adv-x="1280" d="M229 14V1419Q229 1425 233 1429T244 1434H666Q862 1434 979 1339T1096 1071Q1096 948 1027 862T836 739Q978 712 1059 623T1141 385Q1141 214 1014 107T684 0H244Q229 0 229 14ZM266 752H670Q844 752
951 837T1059 1071Q1059 1226 953 1311T666 1397H266V752ZM266 37H684Q872 37 988 133T1104 385Q1104 549 997 632T709 715H266V37Z" />
<glyph unicode="C" glyph-name="C" horiz-adv-x="1495" d="M125 513T125 715T224 1087T495 1355T868 1454Q1017 1454 1135 1406T1366 1264Q1374 1256 1368 1247L1358 1235Q1350 1227 1341 1235Q1236 1326 1123 1371T868 1417Q724 1417 593 1362T368 1213T218 989T162
715Q162 523 256 362T513 109T868 16Q1132 16 1341 207Q1352 216 1358 207L1368 195Q1375 187 1368 180Q1159 -20 868 -20Q665 -20 495 77T225 343Z" />
<glyph unicode="D" glyph-name="D" horiz-adv-x="1501" d="M229 14V1419Q229 1425 233 1429T242 1434H651Q798 1434 932 1378T1163 1225T1317 997T1374 719Q1374 572 1317 439T1163 209T932 57T651 0H242Q237 0 233 4T229 14ZM264 37H651Q791 37 918 90T1137 235T1284
452T1339 719Q1339 903 1247 1059T996 1306T651 1397H264V37Z" />
<glyph unicode="E" glyph-name="E" horiz-adv-x="1249" d="M229 14V1419Q229 1425 233 1429T244 1434H1077Q1083 1434 1087 1430T1092 1419V1411Q1092 1397 1077 1397H266V764H979Q993 764 993 750V741Q993 727 979 727H266V37H1077Q1092 37 1092 23V14Q1092 0
1077 0H244Q229 0 229 14Z" />
<glyph unicode="F" glyph-name="F" horiz-adv-x="1198" d="M229 14V1419Q229 1425 233 1429T244 1434H1077Q1083 1434 1087 1430T1092 1419V1411Q1092 1397 1077 1397H266V713H979Q993 713 993 698V690Q993 676 979 676H266V14Q266 0 252 0H244Q229 0 229 14Z" />
<glyph unicode="G" glyph-name="G" horiz-adv-x="1546" d="M125 513T125 715T224 1087T495 1355T868 1454Q1017 1454 1135 1406T1366 1264Q1374 1256 1368 1247L1358 1235Q1350 1227 1341 1235Q1236 1326 1123 1371T868 1417Q724 1417 593 1362T368 1213T218 989T162
715Q162 523 256 362T513 109T868 16Q964 16 1051 32T1198 74T1294 120T1350 158V639H885Q870 639 870 653V662Q870 667 874 670T885 674H1372Q1386 674 1386 662V143Q1381 135 1359 118T1290 76T1187 31T1044 -5T868 -20Q665 -20 495 77T225 343Z" />
<glyph unicode="H" glyph-name="H" horiz-adv-x="1540" d="M229 14V1419Q229 1425 233 1429T244 1434H252Q266 1434 266 1419V764H1274V1419Q1274 1434 1288 1434H1296Q1311 1434 1311 1419V14Q1311 0 1296 0H1288Q1274 0 1274 14V727H266V14Q266 0 252 0H244Q229
0 229 14Z" />
<glyph unicode="I" glyph-name="I" horiz-adv-x="495" d="M229 14V1419Q229 1425 233 1429T244 1434H252Q266 1434 266 1419V14Q266 0 252 0H244Q229 0 229 14Z" />
<glyph unicode="J" glyph-name="J" horiz-adv-x="776" d="M-61 137Q-70 148 -59 156L-51 162Q-42 168 -35 158Q79 16 256 16Q424 16 513 125T602 438V1419Q602 1434 616 1434H623Q637 1434 637 1419V438Q637 221 538 101T256 -20Q192 -20 136 -3T41 42T-21 92T-61 137Z" />
<glyph unicode="K" glyph-name="K" horiz-adv-x="1144" d="M229 14V1419Q229 1425 233 1429T244 1434H252Q266 1434 266 1419V737L1028 1432Q1038 1442 1049 1432L1055 1425Q1065 1415 1055 1405L299 719L1075 23Q1088 9 1079 0L1071 -8Q1064 -15 1053 -4L266
700V14Q266 0 252 0H244Q229 0 229 14Z" />
<glyph unicode="L" glyph-name="L" horiz-adv-x="1001" d="M229 14V1419Q229 1425 233 1429T244 1434H252Q257 1434 260 1430T264 1419V37H979Q993 37 993 23V14Q993 0 979 0H244Q229 0 229 14Z" />
<glyph unicode="M" glyph-name="M" horiz-adv-x="1759" d="M106 16L408 1458Q410 1469 421 1469T436 1458L881 74L1319 1458Q1322 1469 1333 1469T1348 1458L1657 16Q1660 2 1651 0L1634 -4Q1625 -7 1622 8L1327 1364L895 -16Q892 -27 881 -27T866 -16L426 1364L141
8Q138 -7 129 -4L113 0Q103 2 106 16Z" />
<glyph unicode="N" glyph-name="N" horiz-adv-x="1581" d="M229 14V1454Q229 1465 239 1468T256 1462L1315 51V1419Q1315 1434 1329 1434H1337Q1352 1434 1352 1419V-16Q1352 -27 1342 -30T1325 -25L266 1386V14Q266 0 252 0H244Q229 0 229 14Z" />
<glyph unicode="O" glyph-name="O" horiz-adv-x="1732" d="M127 715Q127 917 225 1087T494 1355T866 1454Q1069 1454 1239 1356T1509 1087T1608 715Q1608 563 1550 427T1392 193T1156 38T866 -20T578 37T342 192T185 426T127 715ZM164 907T164 715T257 362T512
109T866 16Q1010 16 1140 70T1365 218T1515 441T1571 715T1516 989T1366 1213T1141 1362T866 1417Q674 1417 513 1324T258 1069Z" />
<glyph unicode="P" glyph-name="P" horiz-adv-x="1220" d="M229 14V1419Q229 1425 233 1429T244 1434H670Q797 1434 905 1372T1076 1203T1139 971Q1139 778 1002 640T672 502H266V14Q266 0 252 0H244Q229 0 229 14ZM266 539H672Q849 539 975 666T1102 971Q1102
1086 1044 1184T886 1339T670 1397H266V539Z" />
<glyph unicode="Q" glyph-name="Q" horiz-adv-x="1734" d="M127 715Q127 917 225 1087T494 1355T866 1454Q1069 1454 1239 1356T1509 1087T1608 715Q1608 477 1474 291T1122 27L1362 -367Q1369 -377 1360 -383L1341 -393Q1333 -396 1329 -387L1087 14Q980 -20
866 -20Q714 -20 578 37T342 192T185 426T127 715ZM164 907T164 715T257 362T512 109T866 16Q1010 16 1140 70T1365 218T1515 441T1571 715T1516 989T1366 1213T1141 1362T866 1417Q674 1417 513 1324T258 1069Z" />
<glyph unicode="R" glyph-name="R" horiz-adv-x="1327" d="M229 14V1419Q229 1425 233 1429T244 1434H729Q923 1434 1059 1309T1196 995Q1196 828 1090 707T823 555L1143 20Q1150 10 1141 4L1122 -6Q1114 -9 1110 0L784 549Q766 547 731 547H264V14Q264 0 252
0H244Q229 0 229 14ZM264 582H731Q910 582 1035 700T1161 995Q1161 1168 1036 1282T729 1397H264V582Z" />
<glyph unicode="S" glyph-name="S" horiz-adv-x="1138" d="M147 150Q138 159 147 168L156 176Q164 184 174 174Q260 104 340 68Q458 16 584 16Q750 16 874 112T999 340Q999 405 978 457T921 547T827 615T708 668T561 713Q478 735 421 755T305 808T211 878T155
971T133 1096Q133 1161 158 1222T235 1337T375 1422T580 1454Q637 1454 694 1444T793 1418T868 1387T918 1360L934 1350Q945 1343 938 1333L930 1321Q924 1312 913 1317Q907 1321 896 1328T850 1352T778 1382T687 1406T580 1417Q494 1417 424 1398T307 1347T230
1273T184 1187T170 1096Q170 1020 197 964T282 868T406 802T571 750Q664 724 730 700T858 640T956 564T1014 467T1036 340Q1036 244 973 161T806 29T584 -20Q499 -20 419 1T282 57T195 111T147 150Z" />
<glyph unicode="T" glyph-name="T" horiz-adv-x="946" d="M453 14V1397H27Q12 1397 12 1411V1419Q12 1434 27 1434H920Q934 1434 934 1419V1411Q934 1397 920 1397H489V14Q489 0 475 0H467Q453 0 453 14Z" />
<glyph unicode="U" glyph-name="U" horiz-adv-x="1482" d="M211 516V1419Q211 1434 225 1434H233Q248 1434 248 1419V516Q248 292 380 154T739 16Q967 16 1101 154T1235 516V1419Q1235 1434 1249 1434H1257Q1272 1434 1272 1419V516Q1272 277 1127 129T739 -20Q498
-20 355 128T211 516Z" />
<glyph unicode="V" glyph-name="V" horiz-adv-x="1308" d="M635 -33L18 1419Q15 1429 25 1432L43 1438Q49 1440 53 1432L647 33L1255 1432Q1259 1440 1266 1438L1284 1432Q1293 1429 1290 1419L659 -33Q654 -42 647 -42T635 -33Z" />
<glyph unicode="W" glyph-name="W" horiz-adv-x="1820" d="M502 -25L84 1419Q81 1429 90 1432L106 1438Q116 1441 119 1432L516 63L893 1450Q896 1460 907 1460T922 1450L1317 66L1700 1432Q1703 1441 1712 1438L1729 1432Q1738 1429 1735 1419L1331 -25Q1328
-36 1317 -36T1303 -25L907 1360L530 -25Q527 -36 516 -36T502 -25Z" />
<glyph unicode="X" glyph-name="X" horiz-adv-x="1118" d="M80 6Q71 13 78 25L535 731L98 1409Q91 1420 100 1427L113 1436Q122 1440 129 1430L559 764L989 1430Q996 1440 1006 1436L1018 1427Q1027 1420 1020 1409L582 731L1042 25Q1051 13 1040 6L1028 -2Q1019
-6 1012 4L559 696L109 4Q100 -6 92 -2L80 6Z" />
<glyph unicode="Y" glyph-name="Y" horiz-adv-x="1114" d="M539 14V702L-2 1409Q-9 1420 0 1427L12 1436Q19 1440 29 1430L557 735L1085 1430Q1094 1441 1102 1436L1114 1427Q1123 1420 1116 1409L575 705V14Q575 0 561 0H553Q539 0 539 14Z" />
<glyph unicode="Z" glyph-name="Z" horiz-adv-x="1081" d="M59 23L958 1397H141Q127 1397 127 1411V1419Q127 1434 141 1434H999Q1009 1434 1013 1426T1012 1411L113 37H954Q969 37 969 23V14Q969 0 954 0H72Q62 0 58 7T59 23Z" />
<glyph unicode="[" glyph-name="bracketleft" horiz-adv-x="681" d="M217 -578H610Q625 -578 625 -592V-600Q625 -614 610 -614H195Q180 -614 180 -600V1419Q180 1434 195 1434H610Q616 1434 620 1430T625 1419V1411Q625 1397 610 1397H217V-578Z" />
<glyph unicode="\" glyph-name="backslash" horiz-adv-x="684" d="M559 8L57 1419Q53 1431 63 1434H78Q89 1434 92 1425L594 12Q598 0 588 0H573Q562 0 559 8Z" />
<glyph unicode="]" glyph-name="bracketright" horiz-adv-x="681" d="M72 -578H465V1397H72Q57 1397 57 1411V1419Q57 1434 72 1434H487Q502 1434 502 1419V-600Q502 -614 487 -614H72Q57 -614 57 -600V-592Q57 -578 72 -578Z" />
<glyph unicode="^" glyph-name="asciicircum" horiz-adv-x="1073" d="M98 815L86 823Q75 830 82 840L530 1464Q535 1471 542 1471T555 1464L991 840Q998 830 987 823L975 815Q966 809 958 819L543 1415L115 819Q108 808 98 815Z" />
<glyph unicode="_" glyph-name="underscore" horiz-adv-x="821" d="M57 -35Q57 -20 72 -20H750Q764 -20 764 -35V-43Q764 -55 750 -55H72Q57 -55 57 -43V-35Z" />
<glyph unicode="`" glyph-name="grave" horiz-adv-x="618" d="M489 1147L117 1331Q104 1337 111 1350L115 1358Q121 1368 133 1364L506 1178Q517 1173 512 1163L508 1153Q503 1142 489 1147Z" />
<glyph unicode="a" glyph-name="a" horiz-adv-x="892" d="M96 256Q96 379 196 458T457 537Q571 537 698 489V565Q698 691 648 747T471 803Q402 803 340 788T249 756L221 741Q210 734 203 745L197 756Q190 766 201 772Q212 780 234 791T326 821T471 840Q618 840
676 775T735 565V14Q735 0 721 0H713Q698 0 698 14V106Q641 56 557 18T381 -20Q258 -20 177 55T96 256ZM133 256Q133 145 203 81T381 16Q481 16 570 62T698 158V453Q696 454 674 461T631 473T582 485T520 496T457 500Q311 500 222 432T133 256Z" />
<glyph unicode="b" glyph-name="b" horiz-adv-x="1005" d="M166 14V1419Q166 1425 169 1429T178 1434H186Q201 1434 201 1419V725Q206 730 215 737T254 765T317 800T399 827T498 840Q676 840 787 719T899 412Q899 231 785 106T508 -20Q317 -20 201 113V14Q201
0 186 0H178Q166 0 166 14ZM201 170Q206 161 216 148T253 110T312 66T397 31T508 16Q654 16 759 131T864 412Q864 582 763 692T498 803Q446 803 397 790T313 759T253 722T214 691L201 678V170Z" />
<glyph unicode="c" glyph-name="c" horiz-adv-x="974" d="M102 414Q102 597 230 718T541 840Q595 840 647 829T735 801T799 767T840 738L854 727Q862 719 854 711L846 702Q836 692 825 705Q821 709 813 715T777 739T719 769T640 792T541 803Q374 803 256 692T137
414Q137 244 257 130T541 16Q592 16 641 29T726 61T788 99T828 132L842 145Q851 156 858 147L868 137Q875 130 870 125Q865 119 855 110T813 75T744 31T653 -4T541 -20Q362 -20 232 104T102 414Z" />
<glyph unicode="d" glyph-name="d" horiz-adv-x="1005" d="M106 412Q106 597 219 718T510 840Q559 840 607 828T690 799T751 765T792 735L805 723V1419Q805 1434 819 1434H827Q840 1434 840 1419V14Q840 0 827 0H819Q805 0 805 14V113Q689 -20 498 -20Q336 -20
221 105T106 412ZM141 412Q141 246 246 131T498 16Q556 16 608 31T693 65T753 110T790 148T805 170V670Q800 675 792 684T754 716T693 756T612 788T510 803Q347 803 244 693T141 412Z" />
<glyph unicode="e" glyph-name="e" horiz-adv-x="976" d="M145 395Q150 230 248 123T510 16Q597 16 671 43T788 104Q800 113 805 102L813 90Q817 84 809 76Q761 39 682 10T510 -20Q327 -20 217 104T106 414Q106 597 216 718T510 840Q673 840 778 735T883 465Q883
417 874 403Q870 395 862 395H145ZM145 430H844Q846 442 846 465Q846 614 751 708T510 803Q348 803 250 698T145 430Z" />
<glyph unicode="f" glyph-name="f" horiz-adv-x="616" d="M203 14V782H80Q66 782 66 797V805Q66 819 80 819H203V1094Q203 1272 285 1363T508 1454Q648 1454 741 1366Q753 1356 741 1346L735 1339Q725 1329 715 1339Q632 1417 508 1417Q382 1417 311 1336T240
1094V819H610Q625 819 625 805V797Q625 782 610 782H240V14Q240 0 225 0H217Q203 0 203 14Z" />
<glyph unicode="g" glyph-name="g" horiz-adv-x="950" d="M82 102Q82 180 123 229T213 303Q152 384 152 510Q152 649 245 744T492 840H555H557H850Q864 840 864 825V817Q864 803 850 803H664Q736 765 781 698T827 510Q827 372 734 275T492 178Q327 178 238 274Q222
267 206 256T168 225T133 172T119 102Q119 39 159 1T254 -37H631Q771 -37 850 -101T930 -299Q930 -436 815 -535T516 -635Q416 -635 336 -605T208 -526T136 -422T111 -311Q111 -230 151 -169T250 -72Q184 -70 133 -22T82 102ZM492 215Q626 215 708 301T791 510Q791
566 778 613T744 689T698 741T647 775T600 793T566 802L553 803H492Q354 803 271 719T188 510Q188 383 263 299T492 215ZM147 -311Q147 -360 169 -409T234 -501T350 -571T516 -598Q686 -598 789 -510T893 -299Q893 -182 824 -127T631 -72H340Q327 -73 305 -82T256
-112T204 -159T164 -226T147 -311Z" />
<glyph unicode="h" glyph-name="h" horiz-adv-x="1015" d="M166 14V1419Q166 1434 180 1434H188Q203 1434 203 1419V686Q346 840 522 840Q688 840 775 743T862 459V14Q862 0 848 0H840Q825 0 825 14V459Q825 626 748 714T522 803Q471 803 421 787T336 749T270
700T225 657T203 629V14Q203 0 188 0H180Q166 0 166 14Z" />
<glyph unicode="i" glyph-name="i" horiz-adv-x="368" d="M186 1243Q168 1243 157 1255T145 1284Q145 1302 156 1314T186 1327Q203 1327 215 1314T227 1284T215 1255T186 1243ZM166 14V805Q166 819 180 819H188Q203 819 203 805V14Q203 0 188 0H180Q166 0 166 14Z" />
<glyph unicode="j" glyph-name="j" horiz-adv-x="368" d="M184 1243Q166 1243 154 1255T141 1284T153 1314T184 1327Q201 1327 213 1314T225 1284T213 1255T184 1243ZM166 -274V805Q166 819 180 819H188Q203 819 203 805V-274Q203 -635 -84 -635Q-161 -635 -221
-608T-315 -547Q-327 -536 -315 -526L-309 -520Q-300 -511 -291 -520Q-208 -598 -84 -598Q166 -598 166 -274Z" />
<glyph unicode="k" glyph-name="k" horiz-adv-x="845" d="M166 14V1419Q166 1434 180 1434H188Q203 1434 203 1419V473L737 829Q748 838 754 827L762 813Q768 804 758 797L242 455L791 25Q801 14 793 6L782 -6Q776 -16 768 -8L203 438V14Q203 0 188 0H180Q166 0 166 14Z" />
<glyph unicode="l" glyph-name="l" horiz-adv-x="368" d="M166 14V1419Q166 1434 180 1434H188Q203 1434 203 1419V14Q203 0 188 0H180Q166 0 166 14Z" />
<glyph unicode="m" glyph-name="m" horiz-adv-x="1562" d="M166 14V805Q166 819 180 819H188Q203 819 203 805V692Q314 840 504 840Q601 840 671 798T778 676Q792 696 808 714T853 757T914 798T991 828T1085 840Q1243 840 1326 743T1409 459V14Q1409 0 1395 0H1386Q1372
0 1372 14V459Q1372 626 1299 714T1085 803Q1035 803 990 789T914 756T856 712T817 671T795 639Q821 556 821 459V14Q821 0 807 0H799Q784 0 784 14V459Q784 626 712 714T504 803Q451 803 403 788T323 754T264 708T224 666T203 635V14Q203 0 188 0H180Q166 0 166
14Z" />
<glyph unicode="n" glyph-name="n" horiz-adv-x="1015" d="M166 14V805Q166 819 180 819H188Q203 819 203 805V692Q338 840 522 840Q688 840 775 743T862 459V14Q862 0 848 0H840Q825 0 825 14V459Q825 626 748 714T522 803Q459 803 400 781T299 726T236 672T203
635V14Q203 0 188 0H180Q166 0 166 14Z" />
<glyph unicode="o" glyph-name="o" horiz-adv-x="1040" d="M104 412Q104 590 225 715T520 840Q695 840 815 715T936 412Q936 230 816 105T520 -20T225 105T104 412ZM141 412Q141 245 250 131T520 16T789 130T899 412Q899 575 789 689T520 803T251 689T141 412Z" />
<glyph unicode="p" glyph-name="p" horiz-adv-x="1005" d="M201 82V-600Q201 -614 186 -614H178Q166 -614 166 -600V805Q166 819 178 819H186Q201 819 201 805V729Q322 840 496 840Q669 840 784 718T899 414Q899 226 784 103T477 -20Q388 -20 316 11T201 82ZM201
137Q208 128 226 112T278 72T366 33T477 16Q653 16 758 128T864 414Q864 580 759 691T496 803Q431 803 374 786T282 745T227 703T201 674V137Z" />
<glyph unicode="q" glyph-name="q" horiz-adv-x="1005" d="M106 414Q106 594 226 717T520 840Q573 840 619 830T702 799T759 764T805 727V805Q805 819 819 819H827Q840 819 840 805V-600Q840 -614 827 -614H819Q805 -614 805 -600V84Q691 -20 530 -20Q338 -20
222 103T106 414ZM141 414Q141 241 247 129T530 16Q587 16 639 32T725 71T778 111T805 139V672Q798 681 790 691T755 723T699 761T621 790T520 803Q361 803 251 691T141 414Z" />
<glyph unicode="r" glyph-name="r" horiz-adv-x="643" d="M166 14V805Q166 819 180 819H188Q203 819 203 805V696Q243 752 311 796T469 840Q513 840 551 831T605 812L621 803Q632 796 625 784L618 774Q613 764 600 770Q553 803 469 803Q423 803 380 787T309 751T256
704T221 662T203 635V14Q203 0 188 0H180Q166 0 166 14Z" />
<glyph unicode="s" glyph-name="s" horiz-adv-x="780" d="M125 72Q116 78 119 86L129 100Q135 109 147 100Q255 16 395 16Q506 16 579 70T653 205Q653 247 633 279T571 335T487 374T377 408Q234 448 170 497T106 629Q106 665 122 701T171 768T259 820T383 840Q516
840 616 774Q627 768 621 758L614 748Q607 736 596 743Q502 803 383 803Q267 803 206 749T145 629Q145 560 201 519T385 442Q422 431 439 426T489 411T538 393T581 373T620 350T650 322T674 290T688 251T694 205Q694 110 607 45T395 -20Q243 -20 125 72Z" />
<glyph unicode="t" glyph-name="t" horiz-adv-x="645" d="M178 219V782H92Q80 782 80 797V805Q80 819 92 819H178V1040Q178 1055 190 1055H199Q213 1055 213 1040V819H547Q561 819 561 805V797Q561 782 547 782H213V219Q213 176 214 153T223 99T246 54T289 27T360
16Q419 16 486 39T582 82Q594 91 598 78L604 66Q606 57 600 51Q569 30 498 5T360 -20Q323 -20 294 -14T246 3T214 32T194 67T183 113T179 162T178 219Z" />
<glyph unicode="u" glyph-name="u" horiz-adv-x="995" d="M154 356V805Q154 819 168 819H176Q190 819 190 805V356Q190 189 268 103T494 16Q546 16 595 33T674 69T735 118T774 158T793 184V805Q793 819 807 819H815Q829 819 829 805V14Q829 0 815 0H807Q793 0
793 14V123Q745 66 670 23T494 -20Q327 -20 241 75T154 356Z" />
<glyph unicode="v" glyph-name="v" horiz-adv-x="815" d="M395 -20L33 809Q26 822 35 825L49 831Q57 836 63 825L408 41L752 825Q758 836 766 831L780 825Q789 822 782 809L420 -20Q416 -30 408 -30T395 -20Z" />
<glyph unicode="w" glyph-name="w" horiz-adv-x="1220" d="M338 -25L63 811Q60 822 70 827L82 831Q93 835 96 825L352 55L596 850Q599 860 610 860T625 850L868 55L1124 825Q1127 835 1139 831L1151 827Q1160 823 1157 811L883 -25Q880 -36 869 -36T854 -25L610
768L367 -25Q363 -36 352 -36T338 -25Z" />
<glyph unicode="x" glyph-name="x" horiz-adv-x="829" d="M78 6Q70 11 76 20L391 424L90 807Q84 816 92 821L104 829Q113 833 119 827L414 453L711 827Q717 833 725 829L737 821Q745 816 739 807L436 424L754 20Q760 11 752 6L739 -2Q731 -6 725 0L414 395L104
0Q98 -6 90 -2L78 6Z" />
<glyph unicode="y" glyph-name="y" horiz-adv-x="864" d="M424 16L27 809Q20 822 29 825L43 831Q51 836 57 825L442 55L803 825Q809 836 817 831L831 825Q841 822 834 809L166 -616Q161 -628 150 -623L139 -616Q131 -611 135 -600L424 16Z" />
<glyph unicode="z" glyph-name="z" horiz-adv-x="772" d="M63 23L631 782H133Q121 782 121 797V805Q121 819 133 819H680Q689 819 693 812T692 797L121 37H657Q672 37 672 23V14Q672 0 657 0H76Q66 0 62 7T63 23Z" />
<glyph unicode="{" glyph-name="braceleft" horiz-adv-x="681" d="M221 -133V211Q221 295 171 346T72 397Q57 397 57 412V420Q57 434 72 434Q118 434 169 485T221 621V958Q221 1454 610 1454Q625 1454 625 1440V1432Q625 1417 610 1417Q258 1417 258 958V621Q258
547 222 495T135 416Q186 389 222 337T258 211V-133Q258 -260 285 -352T361 -497T471 -574T610 -598Q625 -598 625 -612V-621Q625 -635 610 -635Q525 -635 457 -609T335 -527T251 -371T221 -133Z" />
<glyph unicode="|" glyph-name="bar" horiz-adv-x="393" d="M178 -600V1540Q178 1554 193 1554H201Q215 1554 215 1540V-600Q215 -614 201 -614H193Q178 -614 178 -600Z" />
<glyph unicode="}" glyph-name="braceright" horiz-adv-x="681" d="M424 -133V211Q424 284 460 336T547 416Q496 442 460 494T424 621V958Q424 1417 72 1417Q57 1417 57 1432V1440Q57 1454 72 1454Q461 1454 461 958V621Q461 536 512 485T610 434Q625 434 625
420V412Q625 397 610 397Q562 397 512 346T461 211V-133Q461 -271 432 -370T348 -526T225 -609T72 -635Q57 -635 57 -621V-612Q57 -598 72 -598Q149 -598 210 -574T321 -498T397 -353T424 -133Z" />
<glyph unicode="~" glyph-name="asciitilde" horiz-adv-x="1210" d="M172 512L162 518Q154 523 158 535Q162 543 169 556T201 604T255 665T331 713T428 735Q474 735 517 713T584 667T637 606Q677 554 717 523T813 492Q857 492 898 510T966 555T1013 608T1044 654L1053
672Q1058 681 1067 678L1077 674Q1088 668 1083 657Q1079 649 1072 636T1040 588T986 527T910 479T813 457Q777 457 745 468T687 500T644 540T606 586Q568 636 526 667T428 698Q384 698 343 680T275 635T228 582T198 536L188 518Q182 507 172 512Z" />
</font>
</defs>
</svg>
